<?xml version="1.0" encoding="UTF-8" standalone="no"?>
<!DOCTYPE svg PUBLIC "-//W3C//DTD SVG 1.1//EN"
 "http://www.w3.org/Graphics/SVG/1.1/DTD/svg11.dtd">
<!-- Generated by graphviz version 2.43.0 (0)
 -->
<!-- Title: Taskflow Pages: 1 -->
<svg width="290pt" height="259pt"
 viewBox="0.00 0.00 290.00 259.00" xmlns="http://www.w3.org/2000/svg" xmlns:xlink="http://www.w3.org/1999/xlink">
<g id="graph0" class="graph" transform="scale(1 1) rotate(0) translate(4 255)">
<title>Taskflow</title>
<polygon fill-opacity="0" fill="white" stroke="transparent" points="-4,4 -4,-255 286,-255 286,4 -4,4"/>
<g id="clust1" class="cluster">
<title>cluster_p0x7ffeabb61ce0</title>
<polygon fill="none" stroke="white" points="8,-8 8,-243 274,-243 274,-8 8,-8"/>
<text fill="white" text-anchor="middle" x="141" y="-227.8" font-family="Times,serif" font-size="14.00">Taskflow: Print Even Or Odd</text>
</g>
<!-- p0x723800000000 -->
<g id="node1" class="node">
<title>p0x723800000000</title>
<ellipse fill="none" stroke="white" cx="141" cy="-194" rx="59.29" ry="18"/>
<text fill="white" text-anchor="middle" x="141" y="-190.3" font-family="Times,serif" font-size="14.00">Read Data</text>
</g>
<!-- p0x7238000000e0 -->
<g id="node2" class="node">
<title>p0x7238000000e0</title>
<polygon fill="none" stroke="white" points="141,-139 40.62,-121 141,-103 241.38,-121 141,-139"/>
<text fill="white" text-anchor="middle" x="141" y="-117.3" font-family="Times,serif" font-size="14.00">Even Or Odd</text>
</g>
<!-- p0x723800000000&#45;&gt;p0x7238000000e0 -->
<g id="edge1" class="edge">
<title>p0x723800000000&#45;&gt;p0x7238000000e0</title>
<path fill="none" stroke="white" d="M141,-175.81C141,-167.79 141,-158.05 141,-149.07"/>
<polygon fill="black" stroke="white" points="144.5,-149.03 141,-139.03 137.5,-149.03 144.5,-149.03"/>
</g>
<!-- p0x7238000001c0 -->
<g id="node3" class="node">
<title>p0x7238000001c0</title>
<ellipse fill="none" stroke="white" cx="76" cy="-34" rx="60.39" ry="18"/>
<text fill="white" text-anchor="middle" x="76" y="-30.3" font-family="Times,serif" font-size="14.00">Print Even</text>
</g>
<!-- p0x7238000000e0&#45;&gt;p0x7238000001c0 -->
<g id="edge2" class="edge">
<title>p0x7238000000e0&#45;&gt;p0x7238000001c0</title>
<path fill="none" stroke="white" stroke-dasharray="5,2" d="M129.38,-104.8C119.86,-92.35 106.18,-74.47 95.06,-59.92"/>
<polygon fill="black" stroke="white" points="97.71,-57.63 88.86,-51.81 92.15,-61.88 97.71,-57.63"/>
<text fill="white" text-anchor="middle" x="117" y="-73.8" font-family="Times,serif" font-size="14.00">0</text>
</g>
<!-- p0x7238000002a0 -->
<g id="node4" class="node">
<title>p0x7238000002a0</title>
<ellipse fill="none" stroke="white" cx="210" cy="-34" rx="55.79" ry="18"/>
<text fill="white" text-anchor="middle" x="210" y="-30.3" font-family="Times,serif" font-size="14.00">Print Odd</text>
</g>
<!-- p0x7238000000e0&#45;&gt;p0x7238000002a0 -->
<g id="edge3" class="edge">
<title>p0x7238000000e0&#45;&gt;p0x7238000002a0</title>
<path fill="none" stroke="white" stroke-dasharray="5,2" d="M153.34,-104.8C163.51,-92.27 178.15,-74.24 189.99,-59.65"/>
<polygon fill="black" stroke="white" points="193.01,-61.49 196.59,-51.52 187.57,-57.07 193.01,-61.49"/>
<text fill="white" text-anchor="middle" x="184" y="-73.8" font-family="Times,serif" font-size="14.00">1</text>
</g>
</g>
</svg>
