<?xml version="1.0" encoding="UTF-8" standalone="no"?>
<!DOCTYPE svg PUBLIC "-//W3C//DTD SVG 1.1//EN"
 "http://www.w3.org/Graphics/SVG/1.1/DTD/svg11.dtd">
<!-- Generated by graphviz version 2.43.0 (0)
 -->
<!-- Title: Taskflow Pages: 1 -->
<svg width="438pt" height="210pt"
 viewBox="0.00 0.00 438.00 210.00" xmlns="http://www.w3.org/2000/svg" xmlns:xlink="http://www.w3.org/1999/xlink">
<g id="graph0" class="graph" transform="scale(1 1) rotate(0) translate(4 206)">
<title>Taskflow</title>
<polygon fill-opacity="0" fill="white" stroke="transparent" points="-4,4 -4,-206 434,-206 434,4 -4,4"/>
<g id="clust1" class="cluster">
<title>cluster_p0x7fffffffdeb0</title>
<polygon fill="none" stroke="white" points="8,-8 8,-194 422,-194 422,-8 8,-8"/>
<text fill="white" text-anchor="middle" x="215" y="-178.8" font-family="Times,serif" font-size="14.00">Taskflow: Dynamic Tasks</text>
</g>
<g id="clust2" class="cluster">
<title>cluster_p0x7238000000e0</title>
<polygon fill="none" stroke="darkgray" points="98,-16 98,-163 414,-163 414,-16 98,-16"/>
<text fill="white" text-anchor="middle" x="256" y="-147.8" font-family="Times,serif" font-size="14.00">Subflow: Dynamic</text>
</g>
<!-- p0x723800000000 -->
<g id="node1" class="node">
<title>p0x723800000000</title>
<ellipse fill="none" stroke="white" cx="52" cy="-114" rx="36" ry="18"/>
<text fill="white" text-anchor="middle" x="52" y="-110.3" font-family="Times,serif" font-size="14.00">Input</text>
</g>
<!-- p0x7238000000e0 -->
<g id="node2" class="node">
<title>p0x7238000000e0</title>
<ellipse fill="none" stroke="white" cx="206" cy="-42" rx="51.19" ry="18"/>
<text fill="white" text-anchor="middle" x="206" y="-38.3" font-family="Times,serif" font-size="14.00">Dynamic</text>
</g>
<!-- p0x723800000000&#45;&gt;p0x7238000000e0 -->
<g id="edge1" class="edge">
<title>p0x723800000000&#45;&gt;p0x7238000000e0</title>
<path fill="none" stroke="white" d="M77.78,-101.28C102.09,-90.23 138.86,-73.52 166.8,-60.82"/>
<polygon fill="black" stroke="white" points="168.25,-64 175.91,-56.68 165.36,-57.63 168.25,-64"/>
</g>
<!-- p0x723800007000 -->
<g id="node3" class="node">
<title>p0x723800007000</title>
<ellipse fill="none" stroke="white" cx="362" cy="-114" rx="44.39" ry="18"/>
<text fill="white" text-anchor="middle" x="362" y="-110.3" font-family="Times,serif" font-size="14.00">Child 0</text>
</g>
<!-- p0x723800007000&#45;&gt;p0x7238000000e0 -->
<g id="edge2" class="edge">
<title>p0x723800007000&#45;&gt;p0x7238000000e0</title>
<path fill="none" stroke="darkgray" stroke-dasharray="5,2" d="M333.39,-100.16C308.76,-89.11 272.97,-73.05 245.6,-60.77"/>
<polygon fill="darkgray" stroke="darkgray" points="246.85,-57.49 236.3,-56.59 243.99,-63.88 246.85,-57.49"/>
</g>
<!-- p0x7238000070e0 -->
<g id="node4" class="node">
<title>p0x7238000070e0</title>
<ellipse fill="none" stroke="white" cx="256" cy="-114" rx="44.39" ry="18"/>
<text fill="white" text-anchor="middle" x="256" y="-110.3" font-family="Times,serif" font-size="14.00">Child 1</text>
</g>
<!-- p0x7238000070e0&#45;&gt;p0x7238000000e0 -->
<g id="edge3" class="edge">
<title>p0x7238000070e0&#45;&gt;p0x7238000000e0</title>
<path fill="none" stroke="darkgray" stroke-dasharray="5,2" d="M244.15,-96.41C238.14,-87.99 230.7,-77.58 224,-68.2"/>
<polygon fill="darkgray" stroke="darkgray" points="226.77,-66.06 218.11,-59.96 221.08,-70.13 226.77,-66.06"/>
</g>
<!-- p0x7238000071c0 -->
<g id="node5" class="node">
<title>p0x7238000071c0</title>
<ellipse fill="none" stroke="white" cx="150" cy="-114" rx="44.39" ry="18"/>
<text fill="white" text-anchor="middle" x="150" y="-110.3" font-family="Times,serif" font-size="14.00">Child 2</text>
</g>
<!-- p0x7238000071c0&#45;&gt;p0x7238000000e0 -->
<g id="edge4" class="edge">
<title>p0x7238000071c0&#45;&gt;p0x7238000000e0</title>
<path fill="none" stroke="darkgray" stroke-dasharray="5,2" d="M162.99,-96.76C169.89,-88.14 178.51,-77.36 186.22,-67.73"/>
<polygon fill="darkgray" stroke="darkgray" points="189.18,-69.63 192.69,-59.63 183.71,-65.26 189.18,-69.63"/>
</g>
</g>
</svg>
