<?xml version="1.0" encoding="UTF-8" standalone="no"?>
<!DOCTYPE svg PUBLIC "-//W3C//DTD SVG 1.1//EN"
 "http://www.w3.org/Graphics/SVG/1.1/DTD/svg11.dtd">
<!-- Generated by graphviz version 2.43.0 (0)
 -->
<!-- Title: Taskflow Pages: 1 -->
<svg width="259pt" height="315pt"
 viewBox="0.00 0.00 259.00 315.00" xmlns="http://www.w3.org/2000/svg" xmlns:xlink="http://www.w3.org/1999/xlink">
<g id="graph0" class="graph" transform="scale(1 1) rotate(0) translate(4 311)">
<title>Taskflow</title>
<polygon fill-opacity="0" fill="white" stroke="transparent" points="-4,4 -4,-311 255,-311 255,4 -4,4"/>
<g id="clust1" class="cluster">
<title>cluster_p0x7fffffffde20</title>
<polygon fill="none" stroke="white" points="8,-8 8,-299 243,-299 243,-8 8,-8"/>
<text fill="white" text-anchor="middle" x="125.5" y="-283.8" font-family="Times,serif" font-size="14.00">Taskflow: Example Task Graph</text>
</g>
<!-- p0x723800000460 -->
<g id="node1" class="node">
<title>p0x723800000460</title>
<ellipse fill="none" stroke="white" cx="105" cy="-250" rx="40.09" ry="18"/>
<text fill="white" text-anchor="middle" x="105" y="-246.3" font-family="Times,serif" font-size="14.00">Task 1</text>
</g>
<!-- p0x7238000002a0 -->
<g id="node2" class="node">
<title>p0x7238000002a0</title>
<ellipse fill="none" stroke="white" cx="56" cy="-178" rx="40.09" ry="18"/>
<text fill="white" text-anchor="middle" x="56" y="-174.3" font-family="Times,serif" font-size="14.00">Task 2</text>
</g>
<!-- p0x723800000460&#45;&gt;p0x7238000002a0 -->
<g id="edge1" class="edge">
<title>p0x723800000460&#45;&gt;p0x7238000002a0</title>
<path fill="none" stroke="white" d="M93.39,-232.41C87.41,-223.87 79.99,-213.28 73.35,-203.79"/>
<polygon fill="white" stroke="white" points="76.13,-201.66 67.53,-195.47 70.4,-205.67 76.13,-201.66"/>
</g>
<!-- p0x723800000380 -->
<g id="node3" class="node">
<title>p0x723800000380</title>
<ellipse fill="none" stroke="white" cx="155" cy="-178" rx="40.09" ry="18"/>
<text fill="white" text-anchor="middle" x="155" y="-174.3" font-family="Times,serif" font-size="14.00">Task 3</text>
</g>
<!-- p0x723800000460&#45;&gt;p0x723800000380 -->
<g id="edge2" class="edge">
<title>p0x723800000460&#45;&gt;p0x723800000380</title>
<path fill="none" stroke="white" d="M116.85,-232.41C122.95,-223.87 130.52,-213.28 137.29,-203.79"/>
<polygon fill="white" stroke="white" points="140.27,-205.64 143.24,-195.47 134.58,-201.57 140.27,-205.64"/>
</g>
<!-- p0x723800000000 -->
<g id="node5" class="node">
<title>p0x723800000000</title>
<ellipse fill="none" stroke="white" cx="96" cy="-34" rx="40.09" ry="18"/>
<text fill="white" text-anchor="middle" x="96" y="-30.3" font-family="Times,serif" font-size="14.00">Task 6</text>
</g>
<!-- p0x7238000002a0&#45;&gt;p0x723800000000 -->
<g id="edge5" class="edge">
<title>p0x7238000002a0&#45;&gt;p0x723800000000</title>
<path fill="none" stroke="white" d="M49.75,-159.97C44.02,-141.57 37.72,-111.72 47,-88 51.59,-76.27 60.14,-65.57 68.82,-56.92"/>
<polygon fill="white" stroke="white" points="71.46,-59.23 76.39,-49.85 66.69,-54.12 71.46,-59.23"/>
</g>
<!-- p0x7238000000e0 -->
<g id="node4" class="node">
<title>p0x7238000000e0</title>
<ellipse fill="none" stroke="white" cx="96" cy="-106" rx="40.09" ry="18"/>
<text fill="white" text-anchor="middle" x="96" y="-102.3" font-family="Times,serif" font-size="14.00">Task 4</text>
</g>
<!-- p0x723800000380&#45;&gt;p0x7238000000e0 -->
<g id="edge6" class="edge">
<title>p0x723800000380&#45;&gt;p0x7238000000e0</title>
<path fill="none" stroke="white" d="M141.32,-160.76C133.87,-151.93 124.51,-140.83 116.24,-131.01"/>
<polygon fill="white" stroke="white" points="118.73,-128.54 109.61,-123.15 113.38,-133.05 118.73,-128.54"/>
</g>
<!-- p0x7238000001c0 -->
<g id="node6" class="node">
<title>p0x7238000001c0</title>
<ellipse fill="none" stroke="white" cx="195" cy="-106" rx="40.09" ry="18"/>
<text fill="white" text-anchor="middle" x="195" y="-102.3" font-family="Times,serif" font-size="14.00">Task 5</text>
</g>
<!-- p0x723800000380&#45;&gt;p0x7238000001c0 -->
<g id="edge7" class="edge">
<title>p0x723800000380&#45;&gt;p0x7238000001c0</title>
<path fill="none" stroke="white" d="M164.48,-160.41C169.19,-152.16 174.99,-142.01 180.27,-132.78"/>
<polygon fill="white" stroke="white" points="183.39,-134.38 185.31,-123.96 177.31,-130.9 183.39,-134.38"/>
</g>
<!-- p0x7238000000e0&#45;&gt;p0x723800000000 -->
<g id="edge3" class="edge">
<title>p0x7238000000e0&#45;&gt;p0x723800000000</title>
<path fill="none" stroke="white" d="M96,-87.7C96,-79.98 96,-70.71 96,-62.11"/>
<polygon fill="white" stroke="white" points="99.5,-62.1 96,-52.1 92.5,-62.1 99.5,-62.1"/>
</g>
<!-- p0x7238000001c0&#45;&gt;p0x723800000000 -->
<g id="edge4" class="edge">
<title>p0x7238000001c0&#45;&gt;p0x723800000000</title>
<path fill="none" stroke="white" d="M174.49,-90.5C160.25,-80.43 141.06,-66.86 125.23,-55.67"/>
<polygon fill="white" stroke="white" points="127.01,-52.64 116.83,-49.73 122.97,-58.36 127.01,-52.64"/>
</g>
</g>
</svg>
