<?xml version="1.0" encoding="UTF-8" standalone="no"?>
<!DOCTYPE svg PUBLIC "-//W3C//DTD SVG 1.1//EN"
 "http://www.w3.org/Graphics/SVG/1.1/DTD/svg11.dtd">
<!-- Generated by graphviz version 2.43.0 (0)
 -->
<!-- Title: Taskflow Pages: 1 -->
<svg width="280pt" height="332pt"
 viewBox="0.00 0.00 280.00 332.00" xmlns="http://www.w3.org/2000/svg" xmlns:xlink="http://www.w3.org/1999/xlink">
<g id="graph0" class="graph" transform="scale(1 1) rotate(0) translate(4 328)">
<title>Taskflow</title>
<polygon fill-opacity="0" fill="white" stroke="transparent" points="-4,4 -4,-328 276,-328 276,4 -4,4"/>
<g id="clust1" class="cluster">
<title>cluster_p0x7fffffffdf70</title>
<polygon fill="none" stroke="white" points="8,-8 8,-316 264,-316 264,-8 8,-8"/>
<text fill="white" text-anchor="middle" x="136" y="-300.8" font-family="Times,serif" font-size="14.00">Taskflow: Failed Loop</text>
</g>
<!-- p0x723800000000 -->
<g id="node1" class="node">
<title>p0x723800000000</title>
<ellipse fill="none" stroke="white" cx="136" cy="-267" rx="98.58" ry="18"/>
<text fill="white" text-anchor="middle" x="136" y="-263.3" font-family="Times,serif" font-size="14.00">Increment Counter</text>
</g>
<!-- p0x7238000000e0 -->
<g id="node2" class="node">
<title>p0x7238000000e0</title>
<ellipse fill="none" stroke="white" cx="113" cy="-194" rx="74.99" ry="18"/>
<text fill="white" text-anchor="middle" x="113" y="-190.3" font-family="Times,serif" font-size="14.00">Print Counter</text>
</g>
<!-- p0x723800000000&#45;&gt;p0x7238000000e0 -->
<g id="edge1" class="edge">
<title>p0x723800000000&#45;&gt;p0x7238000000e0</title>
<path fill="none" stroke="white" d="M130.43,-248.81C127.8,-240.7 124.61,-230.84 121.67,-221.78"/>
<polygon fill="black" stroke="white" points="124.93,-220.46 118.52,-212.03 118.27,-222.62 124.93,-220.46"/>
</g>
<!-- p0x7238000001c0 -->
<g id="node3" class="node">
<title>p0x7238000001c0</title>
<polygon fill="none" stroke="white" points="136,-139 15.68,-121 136,-103 256.32,-121 136,-139"/>
<text fill="white" text-anchor="middle" x="136" y="-117.3" font-family="Times,serif" font-size="14.00">Is Goal Reached</text>
</g>
<!-- p0x7238000000e0&#45;&gt;p0x7238000001c0 -->
<g id="edge2" class="edge">
<title>p0x7238000000e0&#45;&gt;p0x7238000001c0</title>
<path fill="none" stroke="white" d="M118.57,-175.81C121.26,-167.49 124.56,-157.33 127.55,-148.08"/>
<polygon fill="black" stroke="white" points="130.89,-149.13 130.64,-138.54 124.23,-146.97 130.89,-149.13"/>
</g>
<!-- p0x7238000001c0&#45;&gt;p0x723800000000 -->
<g id="edge3" class="edge">
<title>p0x7238000001c0&#45;&gt;p0x723800000000</title>
<path fill="none" stroke="white" stroke-dasharray="5,2" d="M159.36,-135.54C173.11,-144.94 189.28,-158.85 197,-176 203.57,-190.59 203.57,-197.41 197,-212 191.5,-224.21 181.73,-234.78 171.59,-243.24"/>
<polygon fill="black" stroke="white" points="169.2,-240.67 163.46,-249.58 173.5,-246.19 169.2,-240.67"/>
<text fill="white" text-anchor="middle" x="206" y="-190.3" font-family="Times,serif" font-size="14.00">0</text>
</g>
<!-- p0x7238000002a0 -->
<g id="node4" class="node">
<title>p0x7238000002a0</title>
<ellipse fill="none" stroke="white" cx="136" cy="-34" rx="34.39" ry="18"/>
<text fill="white" text-anchor="middle" x="136" y="-30.3" font-family="Times,serif" font-size="14.00">Done</text>
</g>
<!-- p0x7238000001c0&#45;&gt;p0x7238000002a0 -->
<g id="edge4" class="edge">
<title>p0x7238000001c0&#45;&gt;p0x7238000002a0</title>
<path fill="none" stroke="white" stroke-dasharray="5,2" d="M136,-102.8C136,-91.16 136,-75.55 136,-62.24"/>
<polygon fill="black" stroke="white" points="139.5,-62.18 136,-52.18 132.5,-62.18 139.5,-62.18"/>
<text fill="white" text-anchor="middle" x="141" y="-73.8" font-family="Times,serif" font-size="14.00">1</text>
</g>
</g>
</svg>
