<?xml version="1.0" encoding="UTF-8" standalone="no"?>
<!DOCTYPE svg PUBLIC "-//W3C//DTD SVG 1.1//EN"
 "http://www.w3.org/Graphics/SVG/1.1/DTD/svg11.dtd">
<!-- Generated by graphviz version 2.43.0 (0)
 -->
<!-- Title: Taskflow Pages: 1 -->
<svg width="1019pt" height="553pt"
 viewBox="0.00 0.00 1019.00 553.00" xmlns="http://www.w3.org/2000/svg" xmlns:xlink="http://www.w3.org/1999/xlink">
<g id="graph0" class="graph" transform="scale(1 1) rotate(0) translate(4 549)">
<title>Taskflow</title>
<polygon fill-opacity="0" fill="white" stroke="transparent" points="-4,4 -4,-549 1015,-549 1015,4 -4,4"/>
<g id="clust1" class="cluster">
<title>cluster_p0x7fffffffdef8</title>
<polygon fill="none" stroke="white" points="8,-8 8,-537 1003,-537 1003,-8 8,-8"/>
<text fill="white" text-anchor="middle" x="505.5" y="-521.8" font-family="Times,serif" font-size="14.00">Taskflow: Fibonacci</text>
</g>
<g id="clust2" class="cluster">
<title>cluster_p0x723800000000</title>
<polygon fill="none" stroke="darkgray" points="16,-16 16,-506 995,-506 995,-16 16,-16"/>
<text fill="white" text-anchor="middle" x="505.5" y="-490.8" font-family="Times,serif" font-size="14.00">Subflow: fib(5)=5</text>
</g>
<g id="clust3" class="cluster">
<title>cluster_p0x723800007000</title>
<polygon fill="none" stroke="darkgray" points="383,-88 383,-475 987,-475 987,-88 383,-88"/>
<text fill="white" text-anchor="middle" x="685" y="-459.8" font-family="Times,serif" font-size="14.00">Subflow: fib(4)=3</text>
</g>
<g id="clust4" class="cluster">
<title>cluster_p0x72380000e000</title>
<polygon fill="none" stroke="darkgray" points="628,-160 628,-444 979,-444 979,-160 628,-160"/>
<text fill="white" text-anchor="middle" x="803.5" y="-428.8" font-family="Times,serif" font-size="14.00">Subflow: fib(3)=2</text>
</g>
<g id="clust5" class="cluster">
<title>cluster_p0x72380001c000</title>
<polygon fill="none" stroke="darkgray" points="742,-232 742,-413 971,-413 971,-232 742,-232"/>
<text fill="white" text-anchor="middle" x="856.5" y="-397.8" font-family="Times,serif" font-size="14.00">Subflow: fib(2)=1</text>
</g>
<g id="clust6" class="cluster">
<title>cluster_p0x72380000e0e0</title>
<polygon fill="none" stroke="darkgray" points="391,-160 391,-307 620,-307 620,-160 391,-160"/>
<text fill="white" text-anchor="middle" x="505.5" y="-291.8" font-family="Times,serif" font-size="14.00">Subflow: fib(2)=1</text>
</g>
<g id="clust7" class="cluster">
<title>cluster_p0x7238000070e0</title>
<polygon fill="none" stroke="darkgray" points="24,-88 24,-338 375,-338 375,-88 24,-88"/>
<text fill="white" text-anchor="middle" x="199.5" y="-322.8" font-family="Times,serif" font-size="14.00">Subflow: fib(3)=2</text>
</g>
<g id="clust8" class="cluster">
<title>cluster_p0x7238000071c0</title>
<polygon fill="none" stroke="darkgray" points="138,-160 138,-307 367,-307 367,-160 138,-160"/>
<text fill="white" text-anchor="middle" x="252.5" y="-291.8" font-family="Times,serif" font-size="14.00">Subflow: fib(2)=1</text>
</g>
<!-- p0x723800000000 -->
<g id="node1" class="node">
<title>p0x723800000000</title>
<ellipse fill="none" stroke="white" cx="379" cy="-42" rx="48.99" ry="18"/>
<text fill="white" text-anchor="middle" x="379" y="-38.3" font-family="Times,serif" font-size="14.00">fib(5)=5</text>
</g>
<!-- p0x723800007000 -->
<g id="node2" class="node">
<title>p0x723800007000</title>
<ellipse fill="none" stroke="white" cx="505" cy="-114" rx="48.99" ry="18"/>
<text fill="white" text-anchor="middle" x="505" y="-110.3" font-family="Times,serif" font-size="14.00">fib(4)=3</text>
</g>
<!-- p0x723800007000&#45;&gt;p0x723800000000 -->
<g id="edge1" class="edge">
<title>p0x723800007000&#45;&gt;p0x723800000000</title>
<path fill="none" stroke="darkgray" stroke-dasharray="5,2" d="M479.2,-98.67C460.26,-88.14 434.33,-73.74 413.59,-62.22"/>
<polygon fill="darkgray" stroke="darkgray" points="415.21,-59.11 404.77,-57.32 411.81,-65.23 415.21,-59.11"/>
</g>
<!-- p0x72380000e000 -->
<g id="node3" class="node">
<title>p0x72380000e000</title>
<ellipse fill="none" stroke="white" cx="685" cy="-186" rx="48.99" ry="18"/>
<text fill="white" text-anchor="middle" x="685" y="-182.3" font-family="Times,serif" font-size="14.00">fib(3)=2</text>
</g>
<!-- p0x72380000e000&#45;&gt;p0x723800007000 -->
<g id="edge2" class="edge">
<title>p0x72380000e000&#45;&gt;p0x723800007000</title>
<path fill="none" stroke="darkgray" stroke-dasharray="5,2" d="M653.72,-171.99C644.2,-168.08 633.69,-163.82 624,-160 598.74,-150.05 570.29,-139.28 547.55,-130.77"/>
<polygon fill="darkgray" stroke="darkgray" points="548.77,-127.49 538.18,-127.27 546.32,-134.05 548.77,-127.49"/>
</g>
<!-- p0x72380001c000 -->
<g id="node4" class="node">
<title>p0x72380001c000</title>
<ellipse fill="none" stroke="white" cx="800" cy="-258" rx="48.99" ry="18"/>
<text fill="white" text-anchor="middle" x="800" y="-254.3" font-family="Times,serif" font-size="14.00">fib(2)=1</text>
</g>
<!-- p0x72380001c000&#45;&gt;p0x72380000e000 -->
<g id="edge3" class="edge">
<title>p0x72380001c000&#45;&gt;p0x72380000e000</title>
<path fill="none" stroke="darkgray" stroke-dasharray="5,2" d="M775.89,-242.33C759.03,-232.06 736.29,-218.22 717.78,-206.95"/>
<polygon fill="darkgray" stroke="darkgray" points="719.44,-203.86 709.08,-201.65 715.8,-209.84 719.44,-203.86"/>
</g>
<!-- p0x72380002a000 -->
<g id="node5" class="node">
<title>p0x72380002a000</title>
<ellipse fill="none" stroke="white" cx="914" cy="-364" rx="48.99" ry="18"/>
<text fill="white" text-anchor="middle" x="914" y="-360.3" font-family="Times,serif" font-size="14.00">fib(1)=1</text>
</g>
<!-- p0x72380002a000&#45;&gt;p0x72380001c000 -->
<g id="edge4" class="edge">
<title>p0x72380002a000&#45;&gt;p0x72380001c000</title>
<path fill="none" stroke="darkgray" stroke-dasharray="5,2" d="M896.19,-346.75C877.11,-329.35 846.69,-301.6 825.17,-281.97"/>
<polygon fill="darkgray" stroke="darkgray" points="827.43,-279.29 817.69,-275.14 822.72,-284.46 827.43,-279.29"/>
</g>
<!-- p0x72380002a0e0 -->
<g id="node6" class="node">
<title>p0x72380002a0e0</title>
<ellipse fill="none" stroke="white" cx="799" cy="-364" rx="48.99" ry="18"/>
<text fill="white" text-anchor="middle" x="799" y="-360.3" font-family="Times,serif" font-size="14.00">fib(0)=0</text>
</g>
<!-- p0x72380002a0e0&#45;&gt;p0x72380001c000 -->
<g id="edge5" class="edge">
<title>p0x72380002a0e0&#45;&gt;p0x72380001c000</title>
<path fill="none" stroke="darkgray" stroke-dasharray="5,2" d="M799.17,-345.83C799.32,-329.64 799.56,-305.13 799.74,-286.27"/>
<polygon fill="darkgray" stroke="darkgray" points="803.24,-286.23 799.83,-276.2 796.24,-286.16 803.24,-286.23"/>
</g>
<!-- p0x72380001c0e0 -->
<g id="node7" class="node">
<title>p0x72380001c0e0</title>
<ellipse fill="none" stroke="white" cx="685" cy="-258" rx="48.99" ry="18"/>
<text fill="white" text-anchor="middle" x="685" y="-254.3" font-family="Times,serif" font-size="14.00">fib(1)=1</text>
</g>
<!-- p0x72380001c0e0&#45;&gt;p0x72380000e000 -->
<g id="edge6" class="edge">
<title>p0x72380001c0e0&#45;&gt;p0x72380000e000</title>
<path fill="none" stroke="darkgray" stroke-dasharray="5,2" d="M685,-239.7C685,-231.98 685,-222.71 685,-214.11"/>
<polygon fill="darkgray" stroke="darkgray" points="688.5,-214.1 685,-204.1 681.5,-214.1 688.5,-214.1"/>
</g>
<!-- p0x72380000e0e0 -->
<g id="node8" class="node">
<title>p0x72380000e0e0</title>
<ellipse fill="none" stroke="white" cx="505" cy="-186" rx="48.99" ry="18"/>
<text fill="white" text-anchor="middle" x="505" y="-182.3" font-family="Times,serif" font-size="14.00">fib(2)=1</text>
</g>
<!-- p0x72380000e0e0&#45;&gt;p0x723800007000 -->
<g id="edge7" class="edge">
<title>p0x72380000e0e0&#45;&gt;p0x723800007000</title>
<path fill="none" stroke="darkgray" stroke-dasharray="5,2" d="M505,-167.7C505,-159.98 505,-150.71 505,-142.11"/>
<polygon fill="darkgray" stroke="darkgray" points="508.5,-142.1 505,-132.1 501.5,-142.1 508.5,-142.1"/>
</g>
<!-- p0x723800023000 -->
<g id="node9" class="node">
<title>p0x723800023000</title>
<ellipse fill="none" stroke="white" cx="563" cy="-258" rx="48.99" ry="18"/>
<text fill="white" text-anchor="middle" x="563" y="-254.3" font-family="Times,serif" font-size="14.00">fib(1)=1</text>
</g>
<!-- p0x723800023000&#45;&gt;p0x72380000e0e0 -->
<g id="edge8" class="edge">
<title>p0x723800023000&#45;&gt;p0x72380000e0e0</title>
<path fill="none" stroke="darkgray" stroke-dasharray="5,2" d="M549.25,-240.41C542.03,-231.69 533.04,-220.85 525.06,-211.21"/>
<polygon fill="darkgray" stroke="darkgray" points="527.72,-208.94 518.65,-203.47 522.33,-213.4 527.72,-208.94"/>
</g>
<!-- p0x7238000230e0 -->
<g id="node10" class="node">
<title>p0x7238000230e0</title>
<ellipse fill="none" stroke="white" cx="448" cy="-258" rx="48.99" ry="18"/>
<text fill="white" text-anchor="middle" x="448" y="-254.3" font-family="Times,serif" font-size="14.00">fib(0)=0</text>
</g>
<!-- p0x7238000230e0&#45;&gt;p0x72380000e0e0 -->
<g id="edge9" class="edge">
<title>p0x7238000230e0&#45;&gt;p0x72380000e0e0</title>
<path fill="none" stroke="darkgray" stroke-dasharray="5,2" d="M461.51,-240.41C468.54,-231.78 477.26,-221.06 485.05,-211.5"/>
<polygon fill="darkgray" stroke="darkgray" points="487.99,-213.43 491.59,-203.47 482.56,-209.01 487.99,-213.43"/>
</g>
<!-- p0x7238000070e0 -->
<g id="node11" class="node">
<title>p0x7238000070e0</title>
<ellipse fill="none" stroke="white" cx="253" cy="-114" rx="48.99" ry="18"/>
<text fill="white" text-anchor="middle" x="253" y="-110.3" font-family="Times,serif" font-size="14.00">fib(3)=2</text>
</g>
<!-- p0x7238000070e0&#45;&gt;p0x723800000000 -->
<g id="edge10" class="edge">
<title>p0x7238000070e0&#45;&gt;p0x723800000000</title>
<path fill="none" stroke="darkgray" stroke-dasharray="5,2" d="M278.8,-98.67C297.74,-88.14 323.67,-73.74 344.41,-62.22"/>
<polygon fill="darkgray" stroke="darkgray" points="346.19,-65.23 353.23,-57.32 342.79,-59.11 346.19,-65.23"/>
</g>
<!-- p0x7238000071c0 -->
<g id="node12" class="node">
<title>p0x7238000071c0</title>
<ellipse fill="none" stroke="white" cx="253" cy="-186" rx="48.99" ry="18"/>
<text fill="white" text-anchor="middle" x="253" y="-182.3" font-family="Times,serif" font-size="14.00">fib(2)=1</text>
</g>
<!-- p0x7238000071c0&#45;&gt;p0x7238000070e0 -->
<g id="edge11" class="edge">
<title>p0x7238000071c0&#45;&gt;p0x7238000070e0</title>
<path fill="none" stroke="darkgray" stroke-dasharray="5,2" d="M253,-167.7C253,-159.98 253,-150.71 253,-142.11"/>
<polygon fill="darkgray" stroke="darkgray" points="256.5,-142.1 253,-132.1 249.5,-142.1 256.5,-142.1"/>
</g>
<!-- p0x723800015000 -->
<g id="node13" class="node">
<title>p0x723800015000</title>
<ellipse fill="none" stroke="white" cx="310" cy="-258" rx="48.99" ry="18"/>
<text fill="white" text-anchor="middle" x="310" y="-254.3" font-family="Times,serif" font-size="14.00">fib(1)=1</text>
</g>
<!-- p0x723800015000&#45;&gt;p0x7238000071c0 -->
<g id="edge12" class="edge">
<title>p0x723800015000&#45;&gt;p0x7238000071c0</title>
<path fill="none" stroke="darkgray" stroke-dasharray="5,2" d="M296.49,-240.41C289.46,-231.78 280.74,-221.06 272.95,-211.5"/>
<polygon fill="darkgray" stroke="darkgray" points="275.44,-209.01 266.41,-203.47 270.01,-213.43 275.44,-209.01"/>
</g>
<!-- p0x7238000150e0 -->
<g id="node14" class="node">
<title>p0x7238000150e0</title>
<ellipse fill="none" stroke="white" cx="195" cy="-258" rx="48.99" ry="18"/>
<text fill="white" text-anchor="middle" x="195" y="-254.3" font-family="Times,serif" font-size="14.00">fib(0)=0</text>
</g>
<!-- p0x7238000150e0&#45;&gt;p0x7238000071c0 -->
<g id="edge13" class="edge">
<title>p0x7238000150e0&#45;&gt;p0x7238000071c0</title>
<path fill="none" stroke="darkgray" stroke-dasharray="5,2" d="M208.75,-240.41C215.97,-231.69 224.96,-220.85 232.94,-211.21"/>
<polygon fill="darkgray" stroke="darkgray" points="235.67,-213.4 239.35,-203.47 230.28,-208.94 235.67,-213.4"/>
</g>
<!-- p0x7238000072a0 -->
<g id="node15" class="node">
<title>p0x7238000072a0</title>
<ellipse fill="none" stroke="white" cx="81" cy="-186" rx="48.99" ry="18"/>
<text fill="white" text-anchor="middle" x="81" y="-182.3" font-family="Times,serif" font-size="14.00">fib(1)=1</text>
</g>
<!-- p0x7238000072a0&#45;&gt;p0x7238000070e0 -->
<g id="edge14" class="edge">
<title>p0x7238000072a0&#45;&gt;p0x7238000070e0</title>
<path fill="none" stroke="darkgray" stroke-dasharray="5,2" d="M109.14,-171.22C117.12,-167.45 125.85,-163.46 134,-160 158.71,-149.52 186.77,-138.85 209.44,-130.53"/>
<polygon fill="darkgray" stroke="darkgray" points="210.92,-133.72 219.12,-127 208.53,-127.14 210.92,-133.72"/>
</g>
</g>
</svg>
