<?xml version="1.0" encoding="UTF-8" standalone="no"?>
<!DOCTYPE svg PUBLIC "-//W3C//DTD SVG 1.1//EN"
 "http://www.w3.org/Graphics/SVG/1.1/DTD/svg11.dtd">
<!-- Generated by graphviz version 2.43.0 (0)
 -->
<!-- Title: Taskflow Pages: 1 -->
<svg width="404pt" height="243pt"
 viewBox="0.00 0.00 404.00 243.00" xmlns="http://www.w3.org/2000/svg" xmlns:xlink="http://www.w3.org/1999/xlink">
<g id="graph0" class="graph" transform="scale(1 1) rotate(0) translate(4 239)">
<title>Taskflow</title>
<polygon fill-opacity="0.0" fill="gray" stroke="transparent" points="-4,4 -4,-239 400,-239 400,4 -4,4"/>
<g id="clust1" class="cluster">
<title>cluster_p0x7fffffffde40</title>
<polygon fill="none" stroke="white" points="8,-8 8,-227 388,-227 388,-8 8,-8"/>
<text fill="white" text-anchor="middle" x="198" y="-211.8" font-family="Times,serif" font-size="14.00">Taskflow: Simple Task Graph</text>
</g>
<!-- p0x723800000000 -->
<g id="node1" class="node">
<title>p0x723800000000</title>
<ellipse fill="none" stroke="white" cx="198" cy="-178" rx="38.19" ry="18"/>
<text fill="white" text-anchor="middle" x="198" y="-174.3" font-family="Times,serif" font-size="14.00">Setup</text>
</g>
<!-- p0x7238000000e0 -->
<g id="node2" class="node">
<title>p0x7238000000e0</title>
<ellipse fill="none" stroke="white" cx="71" cy="-106" rx="54.69" ry="18"/>
<text fill="white" text-anchor="middle" x="71" y="-102.3" font-family="Times,serif" font-size="14.00">Parallel 1</text>
</g>
<!-- p0x723800000000&#45;&gt;p0x7238000000e0 -->
<g id="edge1" class="edge">
<title>p0x723800000000&#45;&gt;p0x7238000000e0</title>
<path fill="none" stroke="white" d="M174.11,-163.83C155.13,-153.37 128.27,-138.57 106.73,-126.69"/>
<polygon fill="white" stroke="white" points="108.31,-123.57 97.86,-121.8 104.93,-129.7 108.31,-123.57"/>
</g>
<!-- p0x7238000001c0 -->
<g id="node3" class="node">
<title>p0x7238000001c0</title>
<ellipse fill="none" stroke="white" cx="198" cy="-106" rx="54.69" ry="18"/>
<text fill="white" text-anchor="middle" x="198" y="-102.3" font-family="Times,serif" font-size="14.00">Parallel 2</text>
</g>
<!-- p0x723800000000&#45;&gt;p0x7238000001c0 -->
<g id="edge2" class="edge">
<title>p0x723800000000&#45;&gt;p0x7238000001c0</title>
<path fill="none" stroke="white" d="M198,-159.7C198,-151.98 198,-142.71 198,-134.11"/>
<polygon fill="white" stroke="white" points="201.5,-134.1 198,-124.1 194.5,-134.1 201.5,-134.1"/>
</g>
<!-- p0x7238000002a0 -->
<g id="node4" class="node">
<title>p0x7238000002a0</title>
<ellipse fill="none" stroke="white" cx="325" cy="-106" rx="54.69" ry="18"/>
<text fill="white" text-anchor="middle" x="325" y="-102.3" font-family="Times,serif" font-size="14.00">Parallel 3</text>
</g>
<!-- p0x723800000000&#45;&gt;p0x7238000002a0 -->
<g id="edge3" class="edge">
<title>p0x723800000000&#45;&gt;p0x7238000002a0</title>
<path fill="none" stroke="white" d="M221.89,-163.83C240.87,-153.37 267.73,-138.57 289.27,-126.69"/>
<polygon fill="white" stroke="white" points="291.07,-129.7 298.14,-121.8 287.69,-123.57 291.07,-129.7"/>
</g>
<!-- p0x723800000380 -->
<g id="node5" class="node">
<title>p0x723800000380</title>
<ellipse fill="none" stroke="white" cx="198" cy="-34" rx="55.79" ry="18"/>
<text fill="white" text-anchor="middle" x="198" y="-30.3" font-family="Times,serif" font-size="14.00">Teardown</text>
</g>
<!-- p0x7238000000e0&#45;&gt;p0x723800000380 -->
<g id="edge4" class="edge">
<title>p0x7238000000e0&#45;&gt;p0x723800000380</title>
<path fill="none" stroke="white" d="M97.93,-90.15C116.62,-79.85 141.72,-66.02 162.11,-54.78"/>
<polygon fill="white" stroke="white" points="164.04,-57.72 171.11,-49.82 160.66,-51.59 164.04,-57.72"/>
</g>
<!-- p0x7238000001c0&#45;&gt;p0x723800000380 -->
<g id="edge5" class="edge">
<title>p0x7238000001c0&#45;&gt;p0x723800000380</title>
<path fill="none" stroke="white" d="M198,-87.7C198,-79.98 198,-70.71 198,-62.11"/>
<polygon fill="white" stroke="white" points="201.5,-62.1 198,-52.1 194.5,-62.1 201.5,-62.1"/>
</g>
<!-- p0x7238000002a0&#45;&gt;p0x723800000380 -->
<g id="edge6" class="edge">
<title>p0x7238000002a0&#45;&gt;p0x723800000380</title>
<path fill="none" stroke="white" d="M298.07,-90.15C279.38,-79.85 254.28,-66.02 233.89,-54.78"/>
<polygon fill="white" stroke="white" points="235.34,-51.59 224.89,-49.82 231.96,-57.72 235.34,-51.59"/>
</g>
</g>
</svg>
