<?xml version="1.0" encoding="UTF-8" standalone="no"?>
<!DOCTYPE svg PUBLIC "-//W3C//DTD SVG 1.1//EN"
 "http://www.w3.org/Graphics/SVG/1.1/DTD/svg11.dtd">
<!-- Generated by graphviz version 2.43.0 (0)
 -->
<!-- Title: Taskflow Pages: 1 -->
<svg width="480pt" height="210pt"
 viewBox="0.00 0.00 480.00 210.00" xmlns="http://www.w3.org/2000/svg" xmlns:xlink="http://www.w3.org/1999/xlink">
<g id="graph0" class="graph" transform="scale(1 1) rotate(0) translate(4 206)">
<title>Taskflow</title>
<polygon fill-opacity="0" fill="white" stroke="transparent" points="-4,4 -4,-206 476,-206 476,4 -4,4"/>
<g id="clust1" class="cluster">
<title>cluster_p0x7fffffffdef8</title>
<polygon fill="none" stroke="white" points="8,-8 8,-194 464,-194 464,-8 8,-8"/>
<text fill="white" text-anchor="middle" x="236" y="-178.8" font-family="Times,serif" font-size="14.00">Taskflow: Dynamic Tasks</text>
</g>
<g id="clust2" class="cluster">
<title>cluster_p0x7238000000e0</title>
<polygon fill="none" stroke="blue" points="166,-16 166,-163 456,-163 456,-16 166,-16"/>
<text fill="white" text-anchor="middle" x="311" y="-147.8" font-family="Times,serif" font-size="14.00">Subflow: Near&#45;Phase</text>
</g>
<!-- p0x723800000000 -->
<g id="node1" class="node">
<title>p0x723800000000</title>
<ellipse fill="none" stroke="white" cx="86" cy="-114" rx="69.59" ry="18"/>
<text fill="white" text-anchor="middle" x="86" y="-110.3" font-family="Times,serif" font-size="14.00">Broad&#45;Phase</text>
</g>
<!-- p0x7238000000e0 -->
<g id="node2" class="node">
<title>p0x7238000000e0</title>
<ellipse fill="none" stroke="white" cx="238" cy="-42" rx="64.19" ry="18"/>
<text fill="white" text-anchor="middle" x="238" y="-38.3" font-family="Times,serif" font-size="14.00">Near&#45;Phase</text>
</g>
<!-- p0x723800000000&#45;&gt;p0x7238000000e0 -->
<g id="edge1" class="edge">
<title>p0x723800000000&#45;&gt;p0x7238000000e0</title>
<path fill="none" stroke="white" d="M118.61,-97.98C141.5,-87.44 172.3,-73.26 196.88,-61.94"/>
<polygon fill="black" stroke="white" points="198.35,-65.11 205.97,-57.75 195.42,-58.76 198.35,-65.11"/>
</g>
<!-- p0x723800007000 -->
<g id="node3" class="node">
<title>p0x723800007000</title>
<ellipse fill="none" stroke="white" cx="368" cy="-114" rx="79.89" ry="18"/>
<text fill="white" text-anchor="middle" x="368" y="-110.3" font-family="Times,serif" font-size="14.00">Sphere&#45;Sphere</text>
</g>
<!-- p0x723800007000&#45;&gt;p0x7238000000e0 -->
<g id="edge2" class="edge">
<title>p0x723800007000&#45;&gt;p0x7238000000e0</title>
<path fill="none" stroke="blue" stroke-dasharray="5,2" d="M338.5,-97.12C319.79,-87.04 295.42,-73.92 275.36,-63.12"/>
<polygon fill="blue" stroke="blue" points="276.95,-60 266.49,-58.34 273.63,-66.16 276.95,-60"/>
</g>
<!-- p0x7238000070e0 -->
<g id="node4" class="node">
<title>p0x7238000070e0</title>
<ellipse fill="none" stroke="white" cx="222" cy="-114" rx="48.19" ry="18"/>
<text fill="white" text-anchor="middle" x="222" y="-110.3" font-family="Times,serif" font-size="14.00">Box&#45;Box</text>
</g>
<!-- p0x7238000070e0&#45;&gt;p0x7238000000e0 -->
<g id="edge3" class="edge">
<title>p0x7238000070e0&#45;&gt;p0x7238000000e0</title>
<path fill="none" stroke="blue" stroke-dasharray="5,2" d="M225.87,-96.05C227.65,-88.26 229.81,-78.82 231.81,-70.08"/>
<polygon fill="blue" stroke="blue" points="235.24,-70.8 234.05,-60.28 228.41,-69.24 235.24,-70.8"/>
</g>
</g>
</svg>
